<?xml version="1.0" encoding="UTF-8"?>
<svg width="109px" height="128px" viewBox="0 0 109 128" version="1.1" xmlns="http://www.w3.org/2000/svg" xmlns:xlink="http://www.w3.org/1999/xlink">
    <!-- Generator: Sketch 58 (84663) - https://sketch.com -->
    <title>Group 69</title>
    <desc>Created with Sketch.</desc>
    <defs>
        <polygon id="path-1" points="0.768668884 0.519350652 57.8021 0.519350652 57.8021 54.793 0.768668884 54.793"></polygon>
        <polygon id="path-3" points="0.774044234 0.534 34.9441511 0.534 34.9441511 41.793 0.774044234 41.793"></polygon>
        <polygon id="path-5" points="0.0858688764 0.97266636 10.6824252 0.97266636 10.6824252 16.793 0.0858688764 16.793"></polygon>
        <polygon id="path-7" points="0.817957311 0.9947 41.9368 0.9947 41.9368 45.793 0.817957311 45.793"></polygon>
        <path d="M3.457,11.687 L0.001,38.085 C0.001,38.085 21.935,45.222 30.08,45.343 L30.08,45.343 C49.103,45.625 55.49,27.924 55.49,27.924 L55.49,27.924 L58.605,18.174 L7.215,0.74" id="path-9"></path>
        <path d="M3.457,11.687 L0.001,38.085 C0.001,38.085 21.935,45.222 30.08,45.343 L30.08,45.343 C49.103,45.625 55.49,27.924 55.49,27.924 L55.49,27.924 L58.605,18.174 L7.215,0.74" id="path-11"></path>
        <path d="M3.457,11.687 L0.001,38.085 C0.001,38.085 21.935,45.222 30.08,45.343 L30.08,45.343 C49.103,45.625 55.49,27.924 55.49,27.924 L55.49,27.924 L58.605,18.174 L7.215,0.74" id="path-13"></path>
        <path d="M3.457,11.687 L0.001,38.085 C0.001,38.085 21.935,45.222 30.08,45.343 L30.08,45.343 C49.103,45.625 55.49,27.924 55.49,27.924 L55.49,27.924 L58.605,18.174 L7.215,0.74" id="path-15"></path>
        <path d="M3.457,11.687 L0.001,38.085 C0.001,38.085 21.935,45.222 30.08,45.343 L30.08,45.343 C49.103,45.625 55.49,27.924 55.49,27.924 L55.49,27.924 L58.605,18.174 L7.215,0.74" id="path-17"></path>
        <path d="M3.457,11.687 L0.001,38.085 C0.001,38.085 21.935,45.222 30.08,45.343 L30.08,45.343 C49.103,45.625 55.49,27.924 55.49,27.924 L55.49,27.924 L58.605,18.174 L7.215,0.74" id="path-19"></path>
        <path d="M3.457,11.687 L0.001,38.085 C0.001,38.085 21.935,45.222 30.08,45.343 L30.08,45.343 C49.103,45.625 55.49,27.924 55.49,27.924 L55.49,27.924 L58.605,18.174 L7.215,0.74" id="path-21"></path>
        <path d="M3.457,11.687 L0.001,38.085 C0.001,38.085 21.935,45.222 30.08,45.343 L30.08,45.343 C49.103,45.625 55.49,27.924 55.49,27.924 L55.49,27.924 L58.605,18.174 L7.215,0.74" id="path-23"></path>
        <path d="M3.457,11.687 L0.001,38.085 C0.001,38.085 21.935,45.222 30.08,45.343 L30.08,45.343 C49.103,45.625 55.49,27.924 55.49,27.924 L55.49,27.924 L58.605,18.174 L7.215,0.74" id="path-25"></path>
        <path d="M3.457,11.687 L0.001,38.085 C0.001,38.085 21.935,45.222 30.08,45.343 L30.08,45.343 C49.103,45.625 55.49,27.924 55.49,27.924 L55.49,27.924 L58.605,18.174 L7.215,0.74" id="path-27"></path>
        <path d="M3.457,11.687 L0.001,38.085 C0.001,38.085 21.935,45.222 30.08,45.343 L30.08,45.343 C49.103,45.625 55.49,27.924 55.49,27.924 L55.49,27.924 L58.605,18.174 L7.215,0.74" id="path-29"></path>
        <path d="M3.457,11.687 L0.001,38.085 C0.001,38.085 21.935,45.222 30.08,45.343 L30.08,45.343 C49.103,45.625 55.49,27.924 55.49,27.924 L55.49,27.924 L58.605,18.174 L7.215,0.74" id="path-31"></path>
    </defs>
    <g id="Dashboard/eDocs/Notification-v2" stroke="none" stroke-width="1" fill="none" fill-rule="evenodd">
        <g id="Dashboard" transform="translate(-387.000000, -303.000000)">
            <g id="Group-2" transform="translate(371.000000, 303.000000)">
                <g id="Group-69">
                    <g id="Group-31" transform="translate(16.000000, 0.350000)">
                        <path d="M103.2475,22.4625 C101.9435,22.1395 100.8325,21.1235 100.3935,19.8535 C99.9555,18.5835 100.2025,17.0995 101.0285,16.0395 C99.2165,13.6285 98.7995,9.8035 100.4575,7.2835 C101.3455,5.9365 102.9835,4.8355 104.5145,5.3445 C105.6225,5.7135 106.3155,6.7965 106.8305,7.8445 C109.3105,12.8945 109.6695,18.9465 107.8025,24.2545 C106.0485,24.4195 104.9575,22.8865 103.2475,22.4625" id="Fill-1" fill="#FFAC99"></path>
                        <g id="Group-9" transform="translate(10.000000, 46.000000)">
                            <mask id="mask-2" fill="white">
                                <use xlink:href="#path-1"></use>
                            </mask>
                            <g id="Clip-8"></g>
                            <path d="M28.4731,110.9225 C16.4991,105.4755 10.9091,91.7535 7.6031,79.0215 C3.8741,64.6605 1.6241,49.9175 0.8991,35.0985 C0.4711,26.3535 0.8191,16.8395 6.2801,9.9945 C10.3141,4.9395 16.6271,2.1345 22.9941,0.9935 C28.2741,0.0475 34.2251,0.2985 38.3061,3.7795 C43.9341,8.5785 43.7371,17.0955 44.3601,24.4655 C45.4041,36.8345 50.1381,48.8685 57.8021,58.6325 C53.7851,80.4915 45.7291,96.9145 28.4731,110.9225" id="Fill-7" fill="#007E8E" mask="url(#mask-2)"></path>
                        </g>
                        <g id="Group-12" transform="translate(10.000000, 59.000000)">
                            <mask id="mask-4" fill="white">
                                <use xlink:href="#path-3"></use>
                            </mask>
                            <g id="Clip-11"></g>
                            <path d="M34.4995,30.215 C33.8605,28.402 32.3255,26.816 30.4215,26.551 C28.6735,26.307 26.8225,27.293 26.0495,28.88 C25.2755,30.466 25.6035,32.785 26.8725,34.012 C25.4845,34.997 24.8335,36.784 25.0025,38.464 C24.6175,38.439 24.2285,38.426 23.8355,38.444 C22.8395,42.451 21.1795,47.132 18.8905,50.569 C18.1415,51.694 17.1055,52.891 15.7555,52.842 C13.9905,52.778 13.0875,50.719 12.7465,48.987 C11.7675,44.018 11.9895,38.817 13.3905,33.95 C15.1255,27.922 18.6715,21.975 17.4775,15.816 C16.3735,10.128 8.7605,4.141 4.2255,0.534 C3.7205,1.467 3.2805,2.433 2.8085,3.383 C0.7195,9.176 0.5925,15.828 0.8985,22.098 C1.6245,36.917 3.8755,51.66 7.6035,66.021 C8.1665,68.19 8.8025,70.386 9.5185,72.5676931 C15.0555,72.617 20.8345,69.958 24.6385,65.762 C30.3795,59.43 32.4785,50.612 33.3185,42.107 C33.0625,41.906 32.7975,41.715 32.5345,41.525 C33.4785,39.757 34.1995,37.87 34.6125,35.908 C35.0085,34.027 35.1385,32.028 34.4995,30.215" id="Fill-10" fill="#005862" mask="url(#mask-4)"></path>
                        </g>
                        <g id="Group-15" transform="translate(34.000000, 84.000000)">
                            <mask id="mask-6" fill="white">
                                <use xlink:href="#path-5"></use>
                            </mask>
                            <g id="Clip-14"></g>
                            <path d="M0.7895,14.8424 C-0.6375,12.6624 0.1955,9.3424 2.4805,8.0944 C1.3645,6.7274 1.3105,4.3854 2.2635,2.9004 C3.2175,1.4154 5.1705,0.6534 6.8775,1.0994 C8.7375,1.5854 10.0775,3.3394 10.4995,5.2154 C10.9225,7.0904 10.5595,9.0604 9.9455,10.8824 C8.9635,13.8024 7.3355,16.5034 5.2125,18.7354 C3.4105,18.3534 1.7975,16.3834 0.7895,14.8424" id="Fill-13" fill="#FFAC99" mask="url(#mask-6)"></path>
                        </g>
                        <g id="Group-18" transform="translate(0.000000, 55.000000)">
                            <mask id="mask-8" fill="white">
                                <use xlink:href="#path-7"></use>
                            </mask>
                            <g id="Clip-17"></g>
                            <path d="M16.2798,0.9947 C6.4648,14.9407 2.1608,31.7977 0.9578,48.8077 C0.4158,56.4607 1.2468,65.1257 7.0898,70.0987 C13.5978,75.6377 24.1078,73.9827 30.5508,68.3657 C36.9918,62.7477 40.1068,54.2357 41.9368,45.8867 C39.4188,43.4007 36.4758,41.3977 32.9458,41.1407 C31.4888,45.0037 29.2938,49.4587 26.6178,52.6037 C25.7418,53.6337 24.5738,54.7017 23.2378,54.4947 C21.4938,54.2257 20.8378,52.0747 20.7008,50.3147 C20.3088,45.2657 21.1378,40.1267 23.0978,35.4567 C25.5258,29.6717 29.7438,24.1807 29.2768,17.9247 C28.8458,12.1467 20.3618,5.1067 16.2798,0.9947" id="Fill-16" fill="#007E8E" mask="url(#mask-8)"></path>
                        </g>
                        <path d="M45.5278,48.3155 C53.3328,50.0865 61.3888,51.1485 69.3438,50.2705 C77.2988,49.3915 85.1848,46.4515 91.0588,41.0165 C96.9338,35.5815 100.5618,27.4815 99.6368,19.5325 C101.4148,18.4065 106.5348,21.3315 108.5828,21.8135 C110.2318,32.8615 101.1738,48.5925 89.7028,55.8535 C77.6388,63.4875 63.1558,67.9475 48.9868,66.2045 C46.7738,61.4965 46.3028,53.4595 45.5278,48.3155" id="Fill-19" fill="#007E8E"></path>
                        <path d="M28.4448,29.3531 C35.7108,30.3411 43.2798,30.4101 50.1858,27.9431 C57.0908,25.4771 63.2598,20.1391 65.2918,13.0931 C66.5108,8.8651 65.7638,3.5281 61.9668,1.3041 C58.0668,-0.9799 53.0338,1.0871 49.4948,3.8981 C45.9548,6.7091 42.8348,10.3501 38.5158,11.6851 C30.8608,14.0511 22.5318,8.2991 14.7868,10.3541 C8.7178,11.9631 4.5988,18.8471 6.0468,24.9551 C4.3398,26.1391 3.3858,28.6081 3.1908,30.6771 C2.9958,32.7461 3.5108,34.8281 4.3158,36.7451 C6.1298,41.0691 9.4618,44.7381 13.5918,46.9581 C17.7228,49.1781 22.6228,49.9331 27.2298,49.0601 C25.7278,46.9661 23.9488,44.3181 23.0258,41.9121 C22.1028,39.5061 21.7728,36.7881 22.6068,34.3501 C23.4418,31.9121 25.8908,29.0051 28.4448,29.3531" id="Fill-21" fill="#363436"></path>
                        <path d="M30.2358,42.2042 C31.5648,45.9272 32.8938,49.6502 34.2238,53.3732 C30.5158,55.1152 27.0358,55.2342 22.9458,55.4692 C22.1148,52.2432 21.6788,48.5292 20.8468,45.3032 C24.4048,44.2892 26.6778,43.2182 30.2358,42.2042" id="Fill-23" fill="#FFAC99"></path>
                        <path d="M33.9253,52.5392 C29.6793,51.8232 25.5263,50.5732 21.5993,48.8052 C21.3723,47.6082 21.1363,46.4232 20.8473,45.3032 C24.4043,44.2892 26.6783,43.2182 30.2363,42.2042 C31.4653,45.6492 32.6963,49.0942 33.9253,52.5392" id="Fill-25" fill="#EC9A91"></path>
                        <path d="M29.8764,22.2999 C35.4844,28.6739 38.2974,37.4249 37.4514,45.8729 C32.1484,47.3459 26.2304,48.8149 20.8804,47.5289 C16.5054,46.4769 12.6164,43.5429 10.4054,39.6239 C8.1954,35.7049 7.6944,30.8589 9.0574,26.5709 C10.0104,23.5709 11.9184,20.7929 14.6574,19.2419 C19.2334,16.6499 26.4014,18.3509 29.8764,22.2999" id="Fill-27" fill="#FFAC99"></path>
                        <path d="M40.6704,25.5348 C35.3724,28.0668 29.3864,29.1398 23.5384,28.6048 C22.2864,30.7618 20.8524,32.4368 18.9174,34.0098 C19.9884,36.1388 21.1254,38.4108 22.1974,40.5398 C21.6214,40.7068 20.9054,41.0898 20.3294,41.2568 C19.8484,39.1778 18.9984,36.6728 17.6004,35.0618 C17.1354,34.5258 16.5434,33.9918 15.8334,34.0028 C15.1114,34.0138 14.5014,34.6278 14.2974,35.3208 C14.0924,36.0138 14.2194,36.7618 14.4304,37.4518 C15.1994,39.9678 17.1334,42.1008 19.5614,43.1148 C20.5134,44.5808 21.4534,46.8248 21.0334,48.5218 C15.2404,47.9158 10.1914,44.1478 7.7344,38.8658 C5.2794,33.5838 5.8094,27.0308 9.0794,22.2108 C12.3494,17.3908 18.2434,14.4778 24.0594,14.8078 C30.9194,15.1968 36.8804,19.8038 40.6704,25.5348" id="Fill-29" fill="#363436"></path>
                    </g>
                    <g id="Group-68" transform="translate(0.000000, 82.350000)">
                        <g id="Group-34">
                            <mask id="mask-10" fill="white">
                                <use xlink:href="#path-9"></use>
                            </mask>
                            <g id="Clip-33"></g>
                            <path d="M73.979,23.5895 C98.99,21.7715 125.308,20.1805 147.957,30.9455 C161.892,37.5685 173.424,48.5015 182.769,60.7775 C192.115,73.0545 199.442,86.7195 206.727,100.3195 C206.916,100.6735 206.848,100.3235 207.143,100.5955 C203.628,103.3495 199.486,105.2975 195.123,106.2465 C178.118,94.2615 161.391,72.8925 149.006,56.1755 C118.7,47.8305 89.871,58.6945 61.043,46.1595 C60.479,34.9465 67.445,32.7195 73.979,23.5895" id="Fill-32" fill="#97679F" mask="url(#mask-10)"></path>
                        </g>
                        <g id="Group-37">
                            <mask id="mask-12" fill="white">
                                <use xlink:href="#path-11"></use>
                            </mask>
                            <g id="Clip-36"></g>
                            <path d="M78.2309,30.566 C90.2049,87.732 89.8799,147.443 77.2859,204.476 C72.2489,205.072 66.7559,204.788 61.9319,203.22 C58.1129,181.414 60.2029,158.742 66.6169,137.554 C74.6009,111.179 56.2419,85.581 50.9069,58.546 C49.3689,50.753 53.1619,44.397 58.1489,38.215 C63.1359,32.033 70.3119,31.187 78.2309,30.566" id="Fill-35" fill="#97679F" mask="url(#mask-12)"></path>
                        </g>
                        <g id="Group-40">
                            <mask id="mask-14" fill="white">
                                <use xlink:href="#path-13"></use>
                            </mask>
                            <g id="Clip-39"></g>
                            <path d="M54.5434,74.5714 C42.5694,69.1244 36.9794,55.4024 33.6734,42.6704 C29.9454,28.3094 27.6944,13.5664 26.9694,-1.2526 C26.5414,-9.9976 26.8894,-19.5116 32.3504,-26.3566 C36.3844,-31.4116 42.6974,-34.2166 49.0644,-35.3576 C54.3444,-36.3036 60.2954,-36.0526 64.3764,-32.5716 C70.0044,-27.7726 69.8074,-19.2556 70.4304,-11.8856 C71.4744,0.4834 76.2084,12.5174 83.8724,22.2814 C79.8554,44.1404 71.7994,60.5634 54.5434,74.5714" id="Fill-38" fill="#007E8E" mask="url(#mask-14)"></path>
                        </g>
                        <g id="Group-43">
                            <mask id="mask-16" fill="white">
                                <use xlink:href="#path-15"></use>
                            </mask>
                            <g id="Clip-42"></g>
                            <path d="M60.5698,6.8639 C59.9308,5.0509 58.3958,3.4659 56.4918,3.1999 C54.7438,2.9559 52.8928,3.9419 52.1198,5.5289 C51.3458,7.1149 51.6748,9.4339 52.9428,10.6609 C51.5548,11.6459 50.9038,13.4329 51.0728,15.1139 C50.6878,15.0879 50.2988,15.0749 49.9058,15.0929 C48.9098,19.0999 47.2498,23.7809 44.9608,27.2179 C44.2118,28.3429 43.1758,29.5399 41.8258,29.4909 C40.0608,29.4269 39.1578,27.3679 38.8168,25.6359 C37.8378,20.6669 38.0598,15.4659 39.4608,10.5989 C41.1958,4.5709 44.7418,-1.3761 43.5478,-7.5351 C42.4438,-13.2231 34.8308,-19.2101 30.2958,-22.8161 C29.7908,-21.8841 29.3508,-20.9171 28.8788,-19.9681 C26.7898,-14.1751 26.6628,-7.5231 26.9688,-1.2531 C27.6948,13.5659 29.9458,28.3099 33.6738,42.6699 C34.2368,44.8389 34.8728,47.0349 35.5888,49.2165931 C41.1258,49.2659 46.9048,46.6069 50.7088,42.4109 C56.4498,36.0789 58.5488,27.2609 59.3888,18.7559 C59.1328,18.5549 58.8688,18.3639 58.6048,18.1739 C59.5488,16.4059 60.2698,14.5189 60.6828,12.5569 C61.0788,10.6759 61.2088,8.6769 60.5698,6.8639" id="Fill-41" fill="#005862" mask="url(#mask-16)"></path>
                        </g>
                        <g id="Group-46">
                            <mask id="mask-18" fill="white">
                                <use xlink:href="#path-17"></use>
                            </mask>
                            <g id="Clip-45"></g>
                            <path d="M50.8598,16.4913 C49.4328,14.3113 50.2658,10.9913 52.5508,9.7433 C51.4348,8.3763 51.3808,6.0343 52.3338,4.5493 C53.2878,3.0643 55.2408,2.3023 56.9478,2.7483 C58.8078,3.2343 60.1478,4.9883 60.5698,6.8643 C60.9928,8.7393 60.6298,10.7093 60.0158,12.5313 C59.0338,15.4513 57.4058,18.1523 55.2828,20.3843 C53.4818,20.0023 51.8678,18.0323 50.8598,16.4913" id="Fill-44" fill="#FFAC99" mask="url(#mask-18)"></path>
                        </g>
                        <g id="Group-49">
                            <mask id="mask-20" fill="white">
                                <use xlink:href="#path-19"></use>
                            </mask>
                            <g id="Clip-48"></g>
                            <path d="M33.9731,-26.1522 C27.8331,-17.4282 23.2151,-7.6462 20.3231,2.6208 C18.5911,8.7678 17.4781,15.0868 17.0281,21.4568 C16.4861,29.1098 17.3171,37.7748 23.1601,42.7468 C29.6681,48.2868 40.1781,46.6328 46.6201,41.0148 C53.0621,35.3968 56.1771,26.8848 58.0071,18.5358 C55.4891,16.0498 52.5461,14.0468 49.0171,13.7898 C47.5591,17.6528 45.3641,22.1078 42.6881,25.2528 C41.8121,26.2828 40.6441,27.3498 39.3081,27.1448 C37.5641,26.8748 36.9081,24.7238 36.7711,22.9638 C36.3791,17.9148 37.2091,12.7758 39.1681,8.1058 C41.5961,2.3208 45.8141,-3.1702 45.3471,-9.4262 C44.9161,-15.2042 38.0551,-22.0402 33.9731,-26.1522" id="Fill-47" fill="#007E8E" mask="url(#mask-20)"></path>
                        </g>
                        <g id="Group-52">
                            <mask id="mask-22" fill="white">
                                <use xlink:href="#path-21"></use>
                            </mask>
                            <g id="Clip-51"></g>
                            <path d="M56.5747,-34.6537 C68.5047,-32.7497 80.7447,-31.9367 92.6407,-34.0387 C104.5377,-36.1397 116.1297,-41.3397 124.4467,-50.1007 C132.7637,-58.8617 137.4367,-71.4177 135.2667,-83.3017 C137.8347,-85.1707 141.7037,-84.6787 144.8357,-84.1537 C149.1767,-63.0457 140.4277,-40.2157 123.9357,-26.3437 C107.4447,-12.4727 85.0487,-6.8047 63.5347,-8.0447 C59.7407,-14.9207 58.2457,-26.9807 56.5747,-34.6537" id="Fill-50" fill="#007E8E" mask="url(#mask-22)"></path>
                        </g>
                        <g id="Group-55">
                            <mask id="mask-24" fill="white">
                                <use xlink:href="#path-23"></use>
                            </mask>
                            <g id="Clip-54"></g>
                            <path d="M44.5151,-52.998 C51.7821,-52.01 59.3501,-51.941 66.2561,-54.408 C73.1611,-56.874 79.3301,-62.212 81.3621,-69.258 C82.5811,-73.486 81.8341,-78.823 78.0371,-81.047 C74.1371,-83.331 69.1051,-81.264 65.5651,-78.453 C62.0261,-75.642 58.9051,-72.001 54.5861,-70.666 C46.9311,-68.299 38.6021,-74.052 30.8571,-71.997 C24.7891,-70.388 20.6691,-63.504 22.1171,-57.396 C20.4101,-56.212 19.4561,-53.743 19.2611,-51.674 C19.0661,-49.605 19.5821,-47.523 20.3861,-45.606 C22.2001,-41.282 25.5321,-37.612 29.6621,-35.393 C33.7931,-33.173 38.6931,-32.418 43.3001,-33.291 C41.7981,-35.385 40.0191,-38.033 39.0961,-40.439 C38.1731,-42.845 37.8431,-45.563 38.6771,-48.001 C39.5121,-50.439 41.9611,-53.345 44.5151,-52.998" id="Fill-53" fill="#363436" mask="url(#mask-24)"></path>
                        </g>
                        <g id="Group-58">
                            <mask id="mask-26" fill="white">
                                <use xlink:href="#path-25"></use>
                            </mask>
                            <g id="Clip-57"></g>
                            <path d="M46.3061,-40.1469 C47.6351,-36.4239 48.9641,-32.7009 50.2941,-28.9779 C46.5861,-27.2359 43.1061,-27.1169 39.0161,-26.8819 C38.1851,-30.1079 37.7491,-33.8219 36.9171,-37.0479 C40.4751,-38.0619 42.7481,-39.1329 46.3061,-40.1469" id="Fill-56" fill="#FFAC99" mask="url(#mask-26)"></path>
                        </g>
                        <g id="Group-61">
                            <mask id="mask-28" fill="white">
                                <use xlink:href="#path-27"></use>
                            </mask>
                            <g id="Clip-60"></g>
                            <path d="M49.9956,-29.8119 C45.7496,-30.5279 41.5966,-31.7779 37.6696,-33.5459 C37.4426,-34.7429 37.2066,-35.9279 36.9176,-37.0479 C40.4746,-38.0619 42.7486,-39.1329 46.3066,-40.1469 C47.5366,-36.7019 48.7666,-33.2569 49.9956,-29.8119" id="Fill-59" fill="#EC9A91" mask="url(#mask-28)"></path>
                        </g>
                        <g id="Group-64">
                            <mask id="mask-30" fill="white">
                                <use xlink:href="#path-29"></use>
                            </mask>
                            <g id="Clip-63"></g>
                            <path d="M45.9468,-60.0512 C51.5548,-53.6772 54.3678,-44.9262 53.5218,-36.4782 C48.2188,-35.0052 42.3008,-33.5362 36.9508,-34.8222 C32.5758,-35.8742 28.6868,-38.8082 26.4758,-42.7272 C24.2658,-46.6462 23.7648,-51.4922 25.1278,-55.7802 C26.0808,-58.7802 27.9888,-61.5582 30.7278,-63.1092 C35.3038,-65.7012 42.4718,-64.0002 45.9468,-60.0512" id="Fill-62" fill="#FFAC99" mask="url(#mask-30)"></path>
                        </g>
                        <g id="Group-67">
                            <mask id="mask-32" fill="white">
                                <use xlink:href="#path-31"></use>
                            </mask>
                            <g id="Clip-66"></g>
                            <path d="M56.7407,-56.8163 C51.4427,-54.2833 45.4567,-53.2113 39.6087,-53.7463 C38.3567,-51.5893 36.9227,-49.9143 34.9877,-48.3413 C36.0587,-46.2123 37.1957,-43.9403 38.2677,-41.8113 C37.6917,-41.6443 36.9757,-41.2613 36.3997,-41.0943 C35.9187,-43.1733 35.0687,-45.6783 33.6707,-47.2893 C33.2057,-47.8253 32.6137,-48.3593 31.9037,-48.3483 C31.1817,-48.3373 30.5717,-47.7233 30.3677,-47.0303 C30.1627,-46.3373 30.2897,-45.5893 30.5007,-44.8993 C31.2697,-42.3833 33.2037,-40.2503 35.6317,-39.2363 C36.5847,-37.7703 37.5237,-35.5263 37.1037,-33.8293 C31.3107,-34.4353 26.2617,-38.2033 23.8057,-43.4853 C21.3507,-48.7673 21.8797,-55.3203 25.1497,-60.1403 C28.4207,-64.9603 34.3137,-67.8733 40.1297,-67.5433 C46.9897,-67.1533 52.9507,-62.5473 56.7407,-56.8163" id="Fill-65" fill="#363436" mask="url(#mask-32)"></path>
                        </g>
                    </g>
                </g>
            </g>
        </g>
    </g>
</svg>