<svg xmlns="http://www.w3.org/2000/svg" xmlns:xlink="http://www.w3.org/1999/xlink" width="123.656" height="30.895" viewBox="0 0 123.656 30.895">
  <defs>
    <clipPath id="clip-path">
      <rect width="123.656" height="30.894" fill="none"/>
    </clipPath>
  </defs>
  <g id="Atom_Logo_124x32px_Desktop_Tablet_" data-name="Atom / Logo / 124x32px [Desktop + Tablet]" clip-path="url(#clip-path)">
    <g id="Logo" transform="translate(0 -0.656)">
      <path id="Logo-2" data-name="Logo" d="M108.322,30.894a15.275,15.275,0,0,1-10.96-4.406,15.5,15.5,0,0,1-4.376-11.039A15.5,15.5,0,0,1,97.362,4.412a15.816,15.816,0,0,1,21.918,0,15.5,15.5,0,0,1,4.377,11.037,15.5,15.5,0,0,1-4.377,11.039A15.271,15.271,0,0,1,108.322,30.894Zm0-28.421c-7.377,0-12.731,5.457-12.731,12.976s5.354,12.974,12.731,12.974,12.729-5.457,12.729-12.974S115.7,2.473,108.322,2.473ZM46.7,24.648c-2.537,0-3.77-1.391-3.77-4.252A4.342,4.342,0,0,1,45.713,15.9a10.775,10.775,0,0,1,1.769-.571c1.114-.246,1.713-.368,3.6-.668v-.337c0-1.308-.448-1.772-1.712-1.772a11.291,11.291,0,0,0-4.612,1.178l-1.04-2.9A12.032,12.032,0,0,1,46.886,9.63,15.891,15.891,0,0,1,50.474,9.2c1.974,0,3.205.353,3.992,1.145S55.6,12.378,55.6,14.365v7.184c0,.967.3,1.327,1.105,1.327h.211V24.5H52.636a1.25,1.25,0,0,1-1.408-1.414v-.21a8.434,8.434,0,0,1-2.007,1.3A6.764,6.764,0,0,1,46.7,24.648Zm4.375-7.393a12.091,12.091,0,0,0-2.606.735c-.814.318-1.075.793-1.075,1.952,0,1.143.3,1.548,1.139,1.548a3.8,3.8,0,0,0,2.542-1.3V17.256ZM63.736,24.5h-4.67V12.28c0-.792-.343-1.145-1.111-1.145h-.269V9.419h4.436a1.269,1.269,0,0,1,1.444,1.418v.6c1.724-1.625,2.991-2.2,4.843-2.2A3.619,3.619,0,0,1,71.229,10.3c.751.809.923,1.548.923,3.95V24.5H67.481V14.944c0-1.536-.241-1.912-1.229-1.912A3.263,3.263,0,0,0,63.736,14.3V24.5Zm-58.878,0H0L5.243,8.66a4.954,4.954,0,0,0,.4-1.626c0-.593-.415-.907-1.2-.907H3.812V4.378h7.457a1.949,1.949,0,0,1,2.1,1.6L18.607,24.5H13.335l-1.348-4.855H6.3L4.858,24.5ZM9.294,8.963,7.047,16.352h4.222ZM40.783,24.5H36.107V12.28c0-.792-.341-1.145-1.107-1.145h-.268V9.419h4.55a1.4,1.4,0,0,1,1.5,1.536V24.5Zm-8.111,0h-4.7V7.25c0-.787-.332-1.123-1.112-1.123h-.293V4.378h4.609a1.4,1.4,0,0,1,1.5,1.542V24.5Zm-7.995,0h-4.7V7.25c0-.787-.331-1.123-1.106-1.123h-.3V4.378h4.611a1.4,1.4,0,0,1,1.494,1.542V24.5Zm61.338,0H74.246v-3.1l6.289-8.9H77.177c-.742,0-1.1.335-1.1,1.025v.269H74.338v-2.74a1.416,1.416,0,0,1,1.617-1.631h9.761v3.112l-6.231,8.8h6.53V24.5Zm30.874-.384h-4.4V9.023h2.6c1.313,0,1.8.492,1.8,1.814V24.114Zm-6.354,0H106.1V8.456c0-1.095-.172-1.3-1.08-1.3h-.237v-1.9h3.961c1.321,0,1.789.475,1.789,1.815V24.114Zm-6.377,0h-4.4V10.837c0-1.322.486-1.814,1.795-1.814h2.606v15.09ZM38.176,8.387c-1.691,0-2.7-.813-2.7-2.174s1.009-2.165,2.7-2.165,2.695.809,2.695,2.165S39.863,8.387,38.176,8.387Z" transform="translate(0 0.656)" fill="#003781"/>
    </g>
  </g>
</svg>
